<svg width="73" height="70" viewBox="0 0 73 70" fill="none" xmlns="http://www.w3.org/2000/svg">
<path d="M72.0968 37.8361C75.1745 55.146 64.7052 69.8839 37.0262 69.8839C12.3561 69.8839 -2.10254 54.1489 1.38737 37.8361C1.38737 20.1366 17.6572 10.7739 37.0262 10.7739C56.3951 10.7739 72.0968 20.1366 72.0968 37.8361Z" fill="#FFC700"/>
<circle cx="1.5498" cy="1.5498" r="1.5498" transform="matrix(-1 0 0 1 57.5417 29.4028)" fill="#DE9E13"/>
<circle cx="1.84975" cy="1.84975" r="1.84975" transform="matrix(-1 0 0 1 65.072 34.0088)" fill="#DE9E13"/>
<circle cx="0.924927" cy="0.924927" r="0.924927" transform="matrix(-1 0 0 1 63.2224 28.478)" fill="#DE9E13"/>
<path d="M28.2497 2.47462C29.5915 0.498296 33.5056 -1.06005 34.2353 1.21453C35.2859 4.48946 33.4202 19.8211 33.4202 19.8211H31.3111C31.3111 19.8211 25.0644 7.16641 28.2497 2.47462Z" fill="#614F3F"/>
<path d="M29.9541 20.3857C29.1896 25.9349 23.7621 26.9035 17.3531 26.0206C7.71026 23.5511 6.44731 19.3496 6.74506 17.1884C7.0428 15.0271 8.98524 11.9219 19.3461 11.5535C25.7551 12.4365 30.9506 13.1522 29.9541 20.3857Z" fill="#467439"/>
</svg>
