<svg width="298" height="71" viewBox="0 0 298 71" fill="none" xmlns="http://www.w3.org/2000/svg">
<path d="M184.353 38.0117C187.431 55.3215 176.962 70.0595 149.283 70.0595C124.613 70.0595 110.154 54.3244 113.644 38.0117C113.644 20.3121 129.914 10.9495 149.283 10.9495C168.652 10.9495 184.353 20.3121 184.353 38.0117Z" fill="#FFC700"/>
<circle cx="1.5498" cy="1.5498" r="1.5498" transform="matrix(-1 0 0 1 169.798 29.5784)" fill="#DE9E13"/>
<circle cx="1.84975" cy="1.84975" r="1.84975" transform="matrix(-1 0 0 1 177.329 34.1843)" fill="#DE9E13"/>
<circle cx="0.924927" cy="0.924927" r="0.924927" transform="matrix(-1 0 0 1 175.479 28.6536)" fill="#DE9E13"/>
<path d="M140.506 2.65015C141.848 0.673833 145.762 -0.884511 146.492 1.39007C147.543 4.665 145.677 19.9966 145.677 19.9966H143.568C143.568 19.9966 137.321 7.34195 140.506 2.65015Z" fill="#614F3F"/>
<path d="M142.211 20.5613C141.446 26.1104 136.019 27.079 129.61 26.1961C119.967 23.7266 118.704 19.5252 119.002 17.3639C119.299 15.2026 121.242 12.0974 131.603 11.7291C138.012 12.612 143.207 13.3277 142.211 20.5613Z" fill="#467439"/>
<path d="M297.481 38.0117C300.559 55.3215 290.09 70.0595 262.411 70.0595C237.741 70.0595 223.282 54.3244 226.772 38.0117C226.772 20.3121 243.042 10.9495 262.411 10.9495C281.78 10.9495 297.481 20.3121 297.481 38.0117Z" fill="#FFC700"/>
<circle cx="1.5498" cy="1.5498" r="1.5498" transform="matrix(-1 0 0 1 282.926 29.5784)" fill="#DE9E13"/>
<circle cx="1.84975" cy="1.84975" r="1.84975" transform="matrix(-1 0 0 1 290.457 34.1843)" fill="#DE9E13"/>
<circle cx="0.924927" cy="0.924927" r="0.924927" transform="matrix(-1 0 0 1 288.607 28.6536)" fill="#DE9E13"/>
<path d="M253.634 2.65015C254.976 0.673833 258.89 -0.884511 259.62 1.39007C260.67 4.665 258.805 19.9966 258.805 19.9966H256.696C256.696 19.9966 250.449 7.34195 253.634 2.65015Z" fill="#614F3F"/>
<path d="M255.339 20.5613C254.574 26.1104 249.147 27.079 242.738 26.1961C233.095 23.7266 231.832 19.5252 232.13 17.3639C232.427 15.2026 234.37 12.0974 244.731 11.7291C251.14 12.612 256.335 13.3277 255.339 20.5613Z" fill="#467439"/>
<path d="M71.2257 38.0117C74.3034 55.3215 63.8341 70.0595 36.1551 70.0595C11.485 70.0595 -2.97364 54.3244 0.516277 38.0117C0.516277 20.3121 16.7861 10.9495 36.1551 10.9495C55.524 10.9495 71.2257 20.3121 71.2257 38.0117Z" fill="#FFC700"/>
<circle cx="1.5498" cy="1.5498" r="1.5498" transform="matrix(-1 0 0 1 56.6707 29.5784)" fill="#DE9E13"/>
<circle cx="1.84975" cy="1.84975" r="1.84975" transform="matrix(-1 0 0 1 64.2009 34.1843)" fill="#DE9E13"/>
<circle cx="0.924927" cy="0.924927" r="0.924927" transform="matrix(-1 0 0 1 62.3513 28.6536)" fill="#DE9E13"/>
<path d="M27.3786 2.65015C28.7204 0.673833 32.6345 -0.884511 33.3642 1.39007C34.4148 4.665 32.5491 19.9966 32.5491 19.9966H30.44C30.44 19.9966 24.1933 7.34195 27.3786 2.65015Z" fill="#614F3F"/>
<path d="M29.083 20.5613C28.3185 26.1104 22.891 27.079 16.482 26.1961C6.83916 23.7266 5.57622 19.5252 5.87396 17.3639C6.17171 15.2026 8.11415 12.0974 18.475 11.7291C24.884 12.612 30.0795 13.3277 29.083 20.5613Z" fill="#467439"/>
</svg>
